<?xml version="1.0" encoding="utf-8"?>
<!-- Generator: Adobe Illustrator 24.0.2, SVG Export Plug-In . SVG Version: 6.00 Build 0)  -->
<svg version="1.1" id="Capa_1" xmlns="http://www.w3.org/2000/svg" xmlns:xlink="http://www.w3.org/1999/xlink" x="0px" y="0px"
	 viewBox="0 0 510 416" style="enable-background:new 0 0 510 416;" xml:space="preserve">
<style type="text/css">
	.st0{fill:url(#SVGID_1_);}
	.st1{fill:url(#SVGID_2_);}
	.st2{fill:url(#SVGID_3_);}
	.st3{fill:#30235B;}
	.st4{fill:#00BDFF;}
	.st5{fill:url(#SVGID_4_);}
	.st6{fill:url(#SVGID_5_);filter:url(#Adobe_OpacityMaskFilter);}
	.st7{mask:url(#mask0_1_);}
	.st8{opacity:0.1;enable-background:new    ;}
	.st9{fill:url(#SVGID_6_);}
	.st10{fill:#111111;}
	.st11{fill:#FFFFFF;}
	.st12{fill:#FFFFFF;filter:url(#Adobe_OpacityMaskFilter_1_);}
	.st13{mask:url(#mask1_1_);}
	.st14{fill:#E8E8E8;}
	.st15{fill:#FFFFFF;filter:url(#Adobe_OpacityMaskFilter_2_);}
	.st16{mask:url(#mask2_1_);}
	.st17{opacity:0.5;fill:#E6FCFF;enable-background:new    ;}
	.st18{fill-rule:evenodd;clip-rule:evenodd;fill:#111111;}
	.st19{fill:#B4B4B4;}
	.st20{fill:url(#SVGID_7_);}
	.st21{fill-rule:evenodd;clip-rule:evenodd;fill:url(#SVGID_8_);}
	.st22{fill-rule:evenodd;clip-rule:evenodd;fill:url(#SVGID_9_);}
	.st23{fill-rule:evenodd;clip-rule:evenodd;fill:url(#SVGID_10_);}
	.st24{fill-rule:evenodd;clip-rule:evenodd;fill:url(#SVGID_11_);}
	.st25{fill:#2F235A;}
	.st26{fill:#FE9076;}
	.st27{fill:#FFA400;}
	.st28{fill:#23BB86;}
	.st29{fill:none;stroke:#FE9076;stroke-width:1.6028;stroke-linecap:round;}
	.st30{fill:none;stroke:#FFA400;stroke-width:1.6028;stroke-linecap:round;}
	.st31{fill:none;stroke:#23BB86;stroke-width:1.6028;stroke-linecap:round;}
	.st32{fill-rule:evenodd;clip-rule:evenodd;fill:url(#SVGID_12_);}
	.st33{fill-rule:evenodd;clip-rule:evenodd;fill:url(#SVGID_13_);}
	.st34{fill-rule:evenodd;clip-rule:evenodd;fill:url(#SVGID_14_);}
	.st35{fill-rule:evenodd;clip-rule:evenodd;fill:url(#SVGID_15_);}
	.st36{fill:#FFBCBC;}
	.st37{fill:none;stroke:#F7F7F7;stroke-width:0.6497;}
	.st38{fill:none;stroke:#F7F7F7;stroke-width:0.575;}
	.st39{fill:none;stroke:#F7F7F7;stroke-width:0.3933;}
	.st40{fill:none;stroke:#F7F7F7;stroke-width:0.3218;}
	.st41{fill:none;stroke:#F7F7F7;stroke-width:0.7025;}
</style>
<linearGradient id="SVGID_1_" gradientUnits="userSpaceOnUse" x1="408.3626" y1="257.4485" x2="411.0096" y2="81.5805" gradientTransform="matrix(1 0 0 -1 0 415.8898)">
	<stop  offset="0" style="stop-color:#FFEFE0"/>
	<stop  offset="1" style="stop-color:#FFBE99"/>
</linearGradient>
<path class="st0" d="M381.2,294l-39.7-23.3l-31.2,46.4c18.2,15.2,48.9,26.3,64.7,22.9c32.5-6.9,98.1-99.1,107.2-106.2
	c31-23.9,41.1-33,2.3-14.4c-37,17.7-17.4,0-26.5,0c-10.9,0.8-7.3,10.4-3.2,17.3L381.2,294z"/>
<linearGradient id="SVGID_2_" gradientUnits="userSpaceOnUse" x1="238.3743" y1="215.5256" x2="225.9743" y2="-32.8124" gradientTransform="matrix(1 0 0 -1 0 415.8898)">
	<stop  offset="0" style="stop-color:#00FFFF"/>
	<stop  offset="1" style="stop-color:#008EDF"/>
</linearGradient>
<path class="st1" d="M155.8,258.7c11.2-7.8,55.5-21.8,74.9-27.8l20.6,2.2c13,3.2,40.8,8.7,53.6,13.9c12.8,5.2,36,21.7,57.7,35.5
	l-5.1,17.7c-4.6,15.9-16.7,28.5-32.5,33.7c-4,25.7-7.5,67.5-7,80.5l-150.5-0.1l-6.9-63.6l-31,3.3l-26.2-20.1
	C136.2,277.2,141.8,268.4,155.8,258.7z"/>
<linearGradient id="SVGID_3_" gradientUnits="userSpaceOnUse" x1="250.0322" y1="81.5015" x2="131.3602" y2="24.6265" gradientTransform="matrix(1 0 0 -1 0 415.8898)">
	<stop  offset="6.779660e-02" style="stop-color:#FFEFE0"/>
	<stop  offset="1" style="stop-color:#FFBE99"/>
</linearGradient>
<path class="st2" d="M112.7,405c-47.7-6-16.7-54.4-8.2-70.3c10.2,8.6,22.9,13.9,36.2,15l16.4,1.5l-6.7,15.5l72.6,17l10.2,28.3
	C226,410.7,172,412.5,112.7,405z"/>
<path class="st3" d="M235.8,104c2.3-4.2,9.1-10.2,17.2,0H235.8z"/>
<ellipse class="st4" cx="239.7" cy="249.4" rx="26" ry="18.5"/>
<linearGradient id="SVGID_4_" gradientUnits="userSpaceOnUse" x1="237.5966" y1="242.5023" x2="239.6766" y2="176.1163" gradientTransform="matrix(1 0 0 -1 0 415.8898)">
	<stop  offset="0" style="stop-color:#FFEFE0"/>
	<stop  offset="1" style="stop-color:#FFBE99"/>
</linearGradient>
<path class="st5" d="M218.4,248.4l3.6-36.1h35.3l4.1,36.1c-1.4,4.3-8.1,12.9-20.5,12.9C225.1,261.3,219.4,252.6,218.4,248.4z"/>
<defs>
	<filter id="Adobe_OpacityMaskFilter" filterUnits="userSpaceOnUse" x="211.1" y="185.4" width="59" height="47.8">
		<feColorMatrix  type="matrix" values="1 0 0 0 0  0 1 0 0 0  0 0 1 0 0  0 0 0 1 0"/>
	</filter>
</defs>
<mask maskUnits="userSpaceOnUse" x="211.1" y="185.4" width="59" height="47.8" id="mask0_1_">
	
		<linearGradient id="SVGID_5_" gradientUnits="userSpaceOnUse" x1="242.8369" y1="242.3794" x2="239.9229" y2="166.7484" gradientTransform="matrix(1 0 0 -1 0 415.8898)">
		<stop  offset="0" style="stop-color:#FFEFE0"/>
		<stop  offset="1" style="stop-color:#FFBE99"/>
	</linearGradient>
	<path class="st6" d="M218.4,248.4l3.6-36.1h35.3l4.1,36.2c-1.4,4.3-8.1,12.8-20.5,12.8C225.1,261.3,219.4,252.6,218.4,248.4z"/>
</mask>
<g class="st7">
	<path class="st8" d="M270.1,213.6c-32,39.5-49.8,7.7-59,3l6.3-26.7l37.8-4.5L270.1,213.6z"/>
</g>
<linearGradient id="SVGID_6_" gradientUnits="userSpaceOnUse" x1="240.8217" y1="277.9297" x2="240.8217" y2="198.2108" gradientTransform="matrix(1 0 0 -1 0 415.8898)">
	<stop  offset="0" style="stop-color:#FFEFE0"/>
	<stop  offset="1" style="stop-color:#FFBE99"/>
</linearGradient>
<path class="st9" d="M239.1,226.8c-38.1,0-44.7-54.7-32.9-79.7c26.5-32.4,59.6-13.5,72.9,0C282.3,167.9,285.8,226.8,239.1,226.8z"/>
<path class="st10" d="M279.7,184.9l-7.5-5.5l1.2-4.1l8.5,5.6L279.7,184.9z"/>
<path class="st10" d="M201.9,183.3l7.5-5.5l-1.2-4.1l-8.5,5.6L201.9,183.3z"/>
<path class="st3" d="M208.8,150.3c27,17.6,57,7.3,68.6,0c-2.4,7.7,1,22.5,3.1,29c17.6-22.9,11.8-35.3,6.8-38.6
	c-0.8-11.4-11.2-39.9-46-38.6c-34.8,1.4-41.6,26.1-40.6,35.2c-13.2,17.9-5.3,35.4,1,42C208.8,165.2,208.6,155.4,208.8,150.3z"/>
<g>
	<path class="st11" d="M243.9,119.7c-40.3-1.4-49.3,25.2-50.5,40.6c-0.1,1.2-1.1,2.2-2.3,2.2c-1.3,0-2.4-1.1-2.3-2.4
		c1.8-19.8,12.3-54.3,55.1-51.9c43.3,2.4,51.7,36.8,50.4,56c-0.1,1-0.9,1.8-2,1.8c-1.1,0-2-0.9-2.1-2
		C289.6,148.1,279,120.7,243.9,119.7z"/>
</g>
<g>
	<path class="st4" d="M297.8,172.8L297.8,172.8c1.5,0.3,2.5,1.7,2.2,3.2l-2.7,15.3c-0.3,1.5-1.7,2.5-3.2,2.2l0,0
		c-1.5-0.3-2.5-1.7-2.2-3.2l2.7-15.3C294.9,173.5,296.3,172.5,297.8,172.8z"/>
</g>
<g>
	<path class="st11" d="M291.6,160.2L291.6,160.2c4.6,0.8,7.6,5.2,6.8,9.8l-4.7,26.5c-0.8,4.6-5.2,7.6-9.8,6.8h0
		c-4.6-0.8-7.6-5.2-6.8-9.8l4.7-26.5C282.6,162.4,287,159.4,291.6,160.2z"/>
</g>
<g>
	<path class="st4" d="M183.5,172.8L183.5,172.8c-1.5,0.3-2.5,1.7-2.2,3.2l2.7,15.3c0.3,1.5,1.7,2.5,3.2,2.2l0,0
		c1.5-0.3,2.5-1.7,2.2-3.2l-2.7-15.3C186.4,173.5,185,172.5,183.5,172.8z"/>
</g>
<g>
	<path class="st11" d="M189.5,160.2L189.5,160.2c-4.6,0.8-7.6,5.2-6.8,9.8l4.7,26.5c0.8,4.6,5.2,7.6,9.8,6.8l0,0
		c4.6-0.8,7.6-5.2,6.8-9.8l-4.7-26.5C198.4,162.4,194.1,159.4,189.5,160.2z"/>
</g>
<defs>
	<filter id="Adobe_OpacityMaskFilter_1_" filterUnits="userSpaceOnUse" x="189.8" y="154.8" width="29.9" height="50.6">
		<feColorMatrix  type="matrix" values="1 0 0 0 0  0 1 0 0 0  0 0 1 0 0  0 0 0 1 0"/>
	</filter>
</defs>
<mask maskUnits="userSpaceOnUse" x="189.8" y="154.8" width="29.9" height="50.6" id="mask1_1_">
	<path class="st12" d="M189.5,160.2L189.5,160.2c-4.6,0.8-7.6,5.2-6.8,9.8l4.7,26.5c0.8,4.6,5.2,7.6,9.8,6.8l0,0
		c4.6-0.8,7.6-5.2,6.8-9.8l-4.7-26.5C198.4,162.4,194.1,159.4,189.5,160.2z"/>
</mask>
<g class="st13">
	
		<rect x="193.8" y="156.4" transform="matrix(0.9845 -0.1753 0.1753 0.9845 -28.4147 38.6965)" class="st14" width="21.9" height="47.5"/>
</g>
<defs>
	<filter id="Adobe_OpacityMaskFilter_2_" filterUnits="userSpaceOnUse" x="262.3" y="154.8" width="29.9" height="50.6">
		<feColorMatrix  type="matrix" values="1 0 0 0 0  0 1 0 0 0  0 0 1 0 0  0 0 0 1 0"/>
	</filter>
</defs>
<mask maskUnits="userSpaceOnUse" x="262.3" y="154.8" width="29.9" height="50.6" id="mask2_1_">
	<path class="st15" d="M291.6,160.2L291.6,160.2c4.6,0.8,7.6,5.2,6.8,9.8l-4.7,26.5c-0.8,4.6-5.2,7.6-9.8,6.8h0
		c-4.6-0.8-7.6-5.2-6.8-9.8l4.7-26.5C282.6,162.4,287,159.4,291.6,160.2z"/>
</mask>
<g class="st16">
	
		<rect x="253.5" y="169.2" transform="matrix(0.1753 -0.9845 0.9845 0.1753 51.3172 421.5835)" class="st14" width="47.5" height="21.9"/>
</g>
<path class="st17" d="M222.7,191.3c-5.4,0-8.1-4.3-8.8-6.1c-0.8-1.6-1.4-5.7,0.5-9c2.4-4.2,13.6-5.3,17.6,0.6
	C235.8,182.6,231.9,191.3,222.7,191.3z"/>
<path class="st17" d="M258.4,191.3c5.4,0,8.1-4.3,8.8-6.1c0.8-1.6,1.4-5.7-0.5-9c-2.4-4.2-13.6-5.3-17.6,0.6
	C245.3,182.6,249.2,191.3,258.4,191.3z"/>
<path class="st18" d="M234.7,175.4c-8.8-7.7-16.7-4.5-21.4-2.5c-0.5,0.2-1,0.4-1.4,0.6l-2.9,0c-0.6,0-1,0.5-1,1l0,2.5
	c0,0.5,0.5,1,1,1h2.1c-1.5,13.3,8.2,16.8,16,14.4c7-2.1,8.8-8.2,9.2-11.9c1.5-3.3,8-1.8,8.3-0.1c0,0,0,0.1,0,0.1l0,0
	c0.3,2.1,1.9,12.5,13.6,12.5c9.6,0,12.2-8.6,12.4-12.9l2.5,0c0.6,0,1-0.5,1-1l0-3c0-0.6-0.5-1-1-1l-2.5,0
	c-6.3-6.4-19.8-5.8-24.5,0.2C240.7,174.1,236.2,174.9,234.7,175.4z M222.7,191.3c-5.4,0-8.1-4.3-8.8-6.1c-0.8-1.6-1.4-5.7,0.5-9
	c2.4-4.2,13.6-5.3,17.6,0.6C235.8,182.6,231.9,191.3,222.7,191.3z M267.2,185.1c-0.7,1.9-3.4,6.1-8.8,6.1c-9.2,0-13.1-8.7-9.2-14.6
	c3.9-5.9,15.2-4.7,17.6-0.6C268.6,179.4,268,183.6,267.2,185.1z"/>
<path class="st19" d="M164.3,409.1c0-0.6,0.4-1,1-1h154.4c1,0,1.8,0.8,1.8,1.8c0,2.9-2.4,5.3-5.3,5.3H170.4
	C167,415.1,164.3,412.4,164.3,409.1z"/>
<linearGradient id="SVGID_7_" gradientUnits="userSpaceOnUse" x1="279.243" y1="188.1944" x2="221.138" y2="-20.3006" gradientTransform="matrix(1 0 0 -1 0 415.8898)">
	<stop  offset="1.717770e-02" style="stop-color:#FFFFFF"/>
	<stop  offset="1" style="stop-color:#D7D7D7"/>
</linearGradient>
<path class="st20" d="M167.3,305.5h151.3c1.6,0,2.9,1.3,2.9,2.9v99.3c0,1.6-1.3,2.9-2.9,2.9H167.3c-1.6,0-2.9-1.3-2.9-2.9v-99.3
	C164.3,306.8,165.6,305.5,167.3,305.5z"/>
<circle class="st11" cx="242.9" cy="358.1" r="11.2"/>
<linearGradient id="SVGID_8_" gradientUnits="userSpaceOnUse" x1="132.8935" y1="251.4578" x2="132.8935" y2="233.5678" gradientTransform="matrix(1 0 0 -1 0 415.8898)">
	<stop  offset="0" style="stop-color:#FFE89E"/>
	<stop  offset="1" style="stop-color:#FFBF1A"/>
</linearGradient>
<path class="st21" d="M131.2,170.3c0.2-3.4,0.9-6.3,1.4-7.8c1.1,2.8,1.7,5.5,1.8,7.9c2.4,0.2,5.1,0.7,7.9,1.8
	c-1.6,0.6-4.4,1.2-7.8,1.4c-0.2,3.6-1.1,6.4-1.9,7.9c-0.9-2.6-1.4-5.3-1.5-7.8c-2.5-0.1-5.2-0.5-7.8-1.5
	C124.8,171.4,127.6,170.4,131.2,170.3z"/>
<linearGradient id="SVGID_9_" gradientUnits="userSpaceOnUse" x1="105.4528" y1="271.9378" x2="105.4528" y2="260.0308" gradientTransform="matrix(1 0 0 -1 0 415.8898)">
	<stop  offset="0" style="stop-color:#FFE89E"/>
	<stop  offset="1" style="stop-color:#FFBF1A"/>
</linearGradient>
<path class="st22" d="M104.4,147.8c0.1-2.3,0.6-4.2,1-5.2c0.7,1.9,1.1,3.6,1.2,5.3c1.6,0.1,3.4,0.5,5.3,1.2c-1.1,0.4-3,0.8-5.2,1
	c-0.1,2.4-0.7,4.3-1.3,5.2c-0.6-1.7-0.9-3.5-1-5.2c-1.7-0.1-3.5-0.4-5.2-1C100.1,148.6,101.9,148,104.4,147.8z"/>
<linearGradient id="SVGID_10_" gradientUnits="userSpaceOnUse" x1="62.6832" y1="289.8618" x2="62.6832" y2="271.9727" gradientTransform="matrix(1 0 0 -1 0 415.8898)">
	<stop  offset="0" style="stop-color:#FFE89E"/>
	<stop  offset="1" style="stop-color:#FFBF1A"/>
</linearGradient>
<path class="st23" d="M61,131.8c0.2-3.4,0.9-6.3,1.4-7.8c1.1,2.8,1.7,5.5,1.8,7.9c2.4,0.2,5.1,0.7,7.9,1.8c-1.6,0.6-4.4,1.2-7.8,1.4
	c-0.2,3.6-1.1,6.4-1.9,7.9c-0.9-2.6-1.4-5.3-1.5-7.8c-2.5-0.1-5.2-0.5-7.8-1.5C54.6,133,57.4,132,61,131.8z"/>
<linearGradient id="SVGID_11_" gradientUnits="userSpaceOnUse" x1="67.1723" y1="214.2638" x2="67.1723" y2="187.9438" gradientTransform="matrix(1 0 0 -1 0 415.8898)">
	<stop  offset="0" style="stop-color:#FFE89E"/>
	<stop  offset="1" style="stop-color:#FFBF1A"/>
</linearGradient>
<path class="st24" d="M64.7,210.2c0.3-5,1.3-9.2,2.1-11.5c1.6,4.1,2.4,8,2.7,11.6c3.6,0.3,7.5,1.1,11.6,2.7
	c-2.3,0.8-6.5,1.8-11.5,2.1c-0.3,5.3-1.6,9.5-2.8,11.6c-1.4-3.8-2-7.8-2.2-11.5C61,215,57,214.3,53.2,213
	C55.3,211.8,59.4,210.5,64.7,210.2z"/>
<circle class="st25" cx="95.2" cy="180.5" r="1.8"/>
<circle class="st26" cx="137.5" cy="127.7" r="1.8"/>
<circle class="st27" cx="44.8" cy="173.2" r="1.8"/>
<circle class="st28" cx="127.4" cy="208.9" r="1.8"/>
<path class="st29" d="M133,120.1c-4.2-5.7-15.9-17.9-29.5-21"/>
<path class="st30" d="M37.1,168.3c-6.2-3.5-21.9-9.8-35.6-7"/>
<path class="st31" d="M121.1,214.3c-3.2,2.8-10.7,10.7-15.9,20"/>
<linearGradient id="SVGID_12_" gradientUnits="userSpaceOnUse" x1="346.9325" y1="251.4578" x2="346.9325" y2="233.5678" gradientTransform="matrix(1 0 0 -1 0 415.8898)">
	<stop  offset="0" style="stop-color:#FFE89E"/>
	<stop  offset="1" style="stop-color:#FFBF1A"/>
</linearGradient>
<path class="st32" d="M348.6,170.3c-0.2-3.4-0.9-6.3-1.4-7.8c-1.1,2.8-1.7,5.5-1.8,7.9c-2.4,0.2-5.1,0.7-7.9,1.8
	c1.6,0.6,4.4,1.2,7.8,1.4c0.2,3.6,1.1,6.4,1.9,7.9c0.9-2.6,1.4-5.3,1.5-7.8c2.5-0.1,5.2-0.5,7.8-1.5
	C355,171.4,352.2,170.4,348.6,170.3z"/>
<linearGradient id="SVGID_13_" gradientUnits="userSpaceOnUse" x1="374.3735" y1="271.9378" x2="374.3735" y2="260.0308" gradientTransform="matrix(1 0 0 -1 0 415.8898)">
	<stop  offset="0" style="stop-color:#FFE89E"/>
	<stop  offset="1" style="stop-color:#FFBF1A"/>
</linearGradient>
<path class="st33" d="M375.5,147.8c-0.1-2.3-0.6-4.2-1-5.2c-0.7,1.9-1.1,3.6-1.2,5.3c-1.6,0.1-3.4,0.5-5.3,1.2c1.1,0.4,3,0.8,5.2,1
	c0.1,2.4,0.7,4.3,1.3,5.2c0.6-1.7,0.9-3.5,1-5.2c1.7-0.1,3.5-0.4,5.2-1C379.8,148.6,377.9,148,375.5,147.8z"/>
<linearGradient id="SVGID_14_" gradientUnits="userSpaceOnUse" x1="417.1425" y1="289.8618" x2="417.1425" y2="271.9727" gradientTransform="matrix(1 0 0 -1 0 415.8898)">
	<stop  offset="0" style="stop-color:#FFE89E"/>
	<stop  offset="1" style="stop-color:#FFBF1A"/>
</linearGradient>
<path class="st34" d="M418.8,131.8c-0.2-3.4-0.9-6.3-1.4-7.8c-1.1,2.8-1.7,5.5-1.8,7.9c-2.4,0.2-5.1,0.7-7.9,1.8
	c1.6,0.6,4.4,1.2,7.8,1.4c0.2,3.6,1.1,6.4,1.9,7.9c0.9-2.6,1.4-5.3,1.5-7.8c2.5-0.1,5.2-0.5,7.8-1.5
	C425.2,133,422.4,132,418.8,131.8z"/>
<linearGradient id="SVGID_15_" gradientUnits="userSpaceOnUse" x1="412.6535" y1="214.2638" x2="412.6535" y2="187.9438" gradientTransform="matrix(1 0 0 -1 0 415.8898)">
	<stop  offset="0" style="stop-color:#FFE89E"/>
	<stop  offset="1" style="stop-color:#FFBF1A"/>
</linearGradient>
<path class="st35" d="M415.1,210.2c-0.3-5-1.3-9.2-2.1-11.5c-1.6,4.1-2.4,8-2.7,11.6c-3.6,0.3-7.5,1.1-11.6,2.7
	c2.3,0.8,6.5,1.8,11.5,2.1c0.3,5.3,1.6,9.5,2.8,11.6c1.4-3.8,2-7.8,2.2-11.5c3.7-0.2,7.7-0.8,11.5-2.2
	C424.6,211.8,420.4,210.5,415.1,210.2z"/>
<circle class="st25" cx="384.6" cy="180.5" r="1.8"/>
<circle class="st26" cx="342.4" cy="127.7" r="1.8"/>
<circle class="st27" cx="435" cy="173.2" r="1.8"/>
<circle class="st28" cx="352.5" cy="208.9" r="1.8"/>
<path class="st29" d="M346.9,120.1c4.2-5.7,15.9-17.9,29.5-21"/>
<path class="st30" d="M442.8,168.3c6.2-3.5,21.9-9.8,35.6-7"/>
<path class="st31" d="M358.8,214.3c3.2,2.8,10.7,10.7,15.9,20"/>
<path class="st36" d="M269.9,56.6c-2.1-3.2-6.3-1.5-6.3,2c0,2.6,5.8,6.8,6.3,7.3c0.5-0.5,6-4.7,6-7.3C276,55.1,272,53.3,269.9,56.6z
	"/>
<circle class="st37" cx="269.8" cy="60.4" r="13.8"/>
<path class="st36" d="M220.4,37.3c-1.8-2.9-5.6-1.3-5.6,1.8c0,2.3,5.1,6,5.6,6.5c0.5-0.5,5.3-4.1,5.3-6.5
	C225.8,36,222.3,34.5,220.4,37.3z"/>
<circle class="st38" cx="220.3" cy="40.7" r="12.2"/>
<path class="st36" d="M253.1,16.3c-1.3-2-3.8-0.9-3.8,1.2c0,1.6,3.5,4.1,3.8,4.4c0.3-0.3,3.6-2.8,3.6-4.4
	C256.8,15.5,254.4,14.4,253.1,16.3z"/>
<circle class="st39" cx="253" cy="18.7" r="8.4"/>
<path class="st36" d="M195.4,5.5c-1-1.6-3.1-0.7-3.1,1c0,1.3,2.9,3.4,3.1,3.6c0.3-0.3,3-2.3,3-3.6C198.4,4.8,196.4,3.9,195.4,5.5z"
	/>
<circle class="st40" cx="195.3" cy="7.4" r="6.8"/>
<path class="st36" d="M190.3,80.4c-2.3-3.5-6.8-1.6-6.8,2.2c0,2.9,6.3,7.3,6.8,7.9c0.6-0.6,6.5-5,6.5-7.9
	C196.8,78.8,192.6,76.9,190.3,80.4z"/>
<circle class="st41" cx="190.1" cy="84.5" r="14.9"/>
</svg>
