<?xml version="1.0" encoding="utf-8"?>
<!-- Generator: Adobe Illustrator 24.0.2, SVG Export Plug-In . SVG Version: 6.00 Build 0)  -->
<svg version="1.1" id="Capa_1" xmlns="http://www.w3.org/2000/svg" xmlns:xlink="http://www.w3.org/1999/xlink" x="0px" y="0px"
	 viewBox="0 0 613 384" style="enable-background:new 0 0 613 384;" xml:space="preserve">
<style type="text/css">
	.st0{fill:url(#SVGID_1_);}
	.st1{fill:#008EDF;}
	.st2{fill:url(#SVGID_2_);}
	.st3{fill:#BABABA;filter:url(#Adobe_OpacityMaskFilter);}
	.st4{mask:url(#mask0_1_);}
	.st5{opacity:0.1;enable-background:new    ;}
	.st6{fill:url(#SVGID_3_);}
	.st7{fill:#30235B;}
	.st8{fill:#111111;}
	.st9{fill:#FFFFFF;}
	.st10{fill:#00BDFF;}
	.st11{opacity:0.5;fill:#E6FCFF;enable-background:new    ;}
	.st12{fill-rule:evenodd;clip-rule:evenodd;fill:#111111;}
	.st13{fill:url(#SVGID_4_);}
	.st14{fill:url(#SVGID_5_);}
	.st15{fill:#B4B4B4;}
	.st16{fill:url(#SVGID_6_);}
	.st17{fill:none;stroke:#30235B;stroke-width:0.6194;}
	.st18{fill:#E0E0E0;}
	.st19{fill:url(#SVGID_7_);}
	.st20{fill:none;stroke:#30235B;stroke-width:0.9494;}
	.st21{fill:url(#SVGID_8_);}
	.st22{fill:url(#SVGID_9_);}
	.st23{fill:url(#SVGID_10_);}
	.st24{opacity:0.5;fill:none;stroke:#F0F0F0;stroke-width:1.8988;enable-background:new    ;}
	.st25{opacity:0.5;fill:#FFFFFF;enable-background:new    ;}
	.st26{fill:url(#SVGID_11_);}
	.st27{opacity:0.5;fill:none;stroke:#E2E2E2;stroke-width:1.8988;enable-background:new    ;}
	.st28{fill:none;filter:url(#Adobe_OpacityMaskFilter_1_);}
	.st29{mask:url(#mask1_1_);}
	.st30{fill:#FF7979;}
	.st31{opacity:0.5;fill:none;stroke:#F7F7F7;stroke-width:1.8988;enable-background:new    ;}
	.st32{fill:#9EFFAE;}
	.st33{fill:#FFDEAD;}
</style>
<linearGradient id="SVGID_1_" gradientUnits="userSpaceOnUse" x1="231.1479" y1="217.3047" x2="218.7279" y2="-31.3943" gradientTransform="matrix(1 0 0 -1 0 383.8898)">
	<stop  offset="0" style="stop-color:#00FFFF"/>
	<stop  offset="1" style="stop-color:#008EDF"/>
</linearGradient>
<path class="st0" d="M148.4,225c11.2-7.8,53-21.8,72.4-27.9h21.9c13,3.2,42.1,11,54.9,16.1c12.8,5.2,36.2,35.9,45.5,50.2L333,283
	c-26,25.6-5,48.2,8.8,56.6c-20.8,0-29.7-7.8-31.6-11.7c2.1,11.8,3.8,40.7,4.3,53.7H161.8V358h-58.3
	C98.2,299.3,134.4,234.8,148.4,225z"/>
<ellipse class="st1" cx="233.5" cy="215.7" rx="26" ry="18.5"/>
<linearGradient id="SVGID_2_" gradientUnits="userSpaceOnUse" x1="240.0529" y1="284.3086" x2="237.8319" y2="173.8476" gradientTransform="matrix(1 0 0 -1 0 383.8898)">
	<stop  offset="0" style="stop-color:#FFEFE0"/>
	<stop  offset="1" style="stop-color:#FFBE99"/>
</linearGradient>
<path class="st2" d="M214.2,213.8c3.4-19.4,2.2-37.4,1.7-43.6c0.7-5.8,31.4,5.1,46.2,10.9c-8.3,4.2-10.6,25.3-10.7,35.3
	c0.3,3.3-1.8,10.3-12.1,11.9C221.9,230.3,215.3,219.4,214.2,213.8z"/>
<defs>
	<filter id="Adobe_OpacityMaskFilter" filterUnits="userSpaceOnUse" x="215.6" y="167.7" width="55.1" height="33.5">
		<feColorMatrix  type="matrix" values="1 0 0 0 0  0 1 0 0 0  0 0 1 0 0  0 0 0 1 0"/>
	</filter>
</defs>
<mask maskUnits="userSpaceOnUse" x="215.6" y="167.7" width="55.1" height="33.5" id="mask0_1_">
	<path class="st3" d="M214.2,213.8c3.4-19.4,2.2-37.4,1.7-43.6c0.7-5.8,31.4,5.1,46.2,10.9c-8.3,4.2-10.6,25.3-10.7,35.3
		c0.3,3.3-1.8,10.3-12.1,11.9C221.9,230.3,215.3,219.4,214.2,213.8z"/>
</mask>
<g class="st4">
	<path class="st5" d="M256.9,201.2c-20.8-3.2-36.2-21.5-41.3-30.3c11.9-2.4,38.5-5.9,50.3,0C277.7,176.8,264.8,193.6,256.9,201.2z"
		/>
</g>
<linearGradient id="SVGID_3_" gradientUnits="userSpaceOnUse" x1="237.1006" y1="295.8341" x2="237.1006" y2="199.2383" gradientTransform="matrix(1 0 0 -1 0 383.8898)">
	<stop  offset="0" style="stop-color:#FFEFE0"/>
	<stop  offset="1" style="stop-color:#FFBE99"/>
</linearGradient>
<path class="st6" d="M250.6,184.6c34.1-1.5,35.1-48.2,31.3-71.4c-61.7-52.3-86.5-11.2-91.1,15.9
	C196.5,148.2,216.4,186.1,250.6,184.6z"/>
<path class="st7" d="M206.5,66.6c-9.8-3.1-30.3-4.6-33.6,13.9C172.9,92.5,201.9,89.5,206.5,66.6z"/>
<path class="st8" d="M218.3,128.3l13.9,12l-1.5,7l-13-11.4L218.3,128.3z"/>
<path class="st7" d="M204.2,139c11.9,10.1,12.6,25.8,11.5,32.4c-3.8-1-14.6-7.7-26.8-26.2c-19.5-39.8,4-69.5,18.1-79.4
	c37.9-22.1,88.7,12.2,79.8,38.4c-8.9,26.2-51.3,20.1-67,10.1c3.3,9.9,0.3,19.7-1.7,23.3C210.8,120.3,189.3,126.5,204.2,139z"/>
<path class="st9" d="M229.6,60.7c25.3-7.3,40.7,5.8,45.2,13.3c-5.1-2.7-19.2-6.6-34.9,0c-24.9,11.4-30.3,35.8-29.9,46.5l-16.5-1.2
	v-6C195,98.8,204.3,68,229.6,60.7z"/>
<ellipse class="st9" cx="200.2" cy="135.3" rx="19.3" ry="23.6"/>
<ellipse class="st9" cx="200.2" cy="135.3" rx="19.3" ry="23.6"/>
<ellipse class="st10" cx="200.2" cy="135.3" rx="9.2" ry="11.3"/>
<path class="st11" d="M284.7,131.7c-7.2-2.2-14.9,2.5-17.8,5.1c-5.4,5.1,2.8,18.2,12.2,12.2C286.6,144.2,285.9,135.4,284.7,131.7z"
	/>
<path class="st12" d="M263.8,135.2c10.4-9.6,20.2-7.9,23.8-5.9c2.1,5.5,0,21.7-11.6,23.2c-9.2,1.1-12.4-6-12.8-9.7
	c-1.8-1.4-2.9-0.2-3.3,0.6c0.3,10.3-8,17.3-16.9,15.7c-7.1-1.3-10.2-8.4-10.9-11.8h-1.5v-6c9.3-9.1,22.1-6.9,27.4-4.6
	C259.4,135.5,262.4,135.2,263.8,135.2z M284.1,132.3c-7.2-2.2-13.7,1.6-16.7,4.2c-5.4,5.1,1.7,17.7,11.6,12.5
	C284.9,145.8,285.4,136.1,284.1,132.3z M243.6,139c3.9-1.3,11.9-2.1,12.5,4.7c0.8,8.5-6.9,14.7-13.7,11.4c-4.9-2.4-6.9-7.4-6.9-10.5
	C235.6,142.1,240.9,139.9,243.6,139z"/>
<path class="st11" d="M256.1,143.7c-0.6-6.8-8.6-5.9-12.5-4.7c-2.7,0.8-8.1,3.1-8.1,5.6c0,3.1,2,8.1,6.9,10.5
	C249.2,158.4,256.9,152.2,256.1,143.7z"/>
<linearGradient id="SVGID_4_" gradientUnits="userSpaceOnUse" x1="215.8884" y1="94.8348" x2="215.8884" y2="10.8468" gradientTransform="matrix(1 0 0 -1 0 383.8898)">
	<stop  offset="6.779660e-02" style="stop-color:#FFEFE0"/>
	<stop  offset="1" style="stop-color:#FFBE99"/>
</linearGradient>
<path class="st13" d="M103.5,358.1c6,26.8,41.7,26.8,58.8,23.5l131.7-19c1.7,1.5,5.8,5.4,8.4,9.1c2.7,3.8,5.1,1.1,6-0.7
	c3.9,4.2,6.7,2.2,7.6,0.7c3.3,4.2,6.1,2.7,7.1,1.5c4.6,3.4,5.8,0.4,5.8-1.5c-6.3-13.3-17.6-26.7-22.4-31.7l-32.8,3L167,332.1
	C146.8,317.9,96,324.6,103.5,358.1z"/>
<linearGradient id="SVGID_5_" gradientUnits="userSpaceOnUse" x1="305.7541" y1="194.8876" x2="387.2611" y2="99.5176" gradientTransform="matrix(1 0 0 -1 0 383.8898)">
	<stop  offset="0" style="stop-color:#FFEFE0"/>
	<stop  offset="1" style="stop-color:#FFBE99"/>
</linearGradient>
<path class="st14" d="M358.7,317.6c-5.9,19.2-14.1,22.6-17.5,21.8c-35.3-23.6-20.2-47.9-8.2-57l31.3-64.4
	c-4.5-3.5-9.6-14.6-9.1-21.6c0.4-5.6,4.2-5.8,6.1-5.2c0.5-5.8,4.7-5.6,6.7-4.8c1.8-6.3,6.9-5,9.2-3.5c0.3-8.7,6.3-7.5,9.3-5.8
	l5.2,14.1c2.1,0.3,7.1,1,9.8,1.4c3.4,0.5,7.7,1.1,5.6,5.9c-1.7,3.8-10.5,17-14.7,23.1C383.7,245.5,364.6,298.4,358.7,317.6z"/>
<path class="st15" d="M268.6,374.7h68.9l0,0c0,3.8-3.1,6.9-6.9,6.9h-55.1C271.7,381.6,268.6,378.5,268.6,374.7L268.6,374.7z"/>
<linearGradient id="SVGID_6_" gradientUnits="userSpaceOnUse" x1="430.854" y1="167.8073" x2="385.133" y2="-21.8087" gradientTransform="matrix(1 0 0 -1 0 383.8898)">
	<stop  offset="1.717770e-02" style="stop-color:#FFFFFF"/>
	<stop  offset="1" style="stop-color:#D7D7D7"/>
</linearGradient>
<path class="st16" d="M359.5,289.6c0.5-1.2,1.6-1.9,2.9-1.9h116.4c2.2,0,3.7,2.2,2.9,4.3L445,379.7c-0.5,1.2-1.6,1.9-2.9,1.9H325.8
	c-2.2,0-3.7-2.2-2.9-4.3L359.5,289.6z"/>
<path class="st17" d="M167.1,332.1l3.1-24.3"/>
<path class="st17" d="M310.1,328.1c-0.5-2.9-1.3-9.8-0.7-14.5"/>
<path class="st17" d="M309.3,318.9l-2.7-5.4"/>
<path class="st17" d="M308.4,370.8l-8.6-10.9"/>
<path class="st17" d="M316,371.3l-13.5-17.5"/>
<path class="st17" d="M323.1,372.9l-16.7-24.1"/>
<path class="st17" d="M361.3,191.3c0.5,2.4,2,8.1,4.3,11.6"/>
<path class="st17" d="M377.3,183c0.7,2.5,2.5,8.1,4.2,10.6"/>
<path class="st17" d="M368,186.6c0.8,2.7,2.9,8.6,4.5,10.8"/>
<path class="st17" d="M391.7,191.2l2.6,7.5"/>
<ellipse transform="matrix(0.3402 -0.9404 0.9404 0.3402 -48.618 604.5336)" class="st9" cx="406.5" cy="336.9" rx="11.4" ry="7.9"/>
<rect x="512.9" y="310" transform="matrix(0.4597 -0.8881 0.8881 0.4597 31.399 682.0262)" class="st18" width="126.6" height="10.4"/>
<path class="st7" d="M523.6,366h52.3c1.7,0,3.1,1.4,3.1,3.1v9.5c0,1.7-1.4,3.1-3.1,3.1h-52.3c-1.7,0-3.1-1.4-3.1-3.1v-9.5
	C520.5,367.4,521.9,366,523.6,366z"/>
<rect x="575.4" y="202.5" transform="matrix(0.646 -0.7633 0.7633 0.646 25.017 526.9088)" class="st18" width="10.4" height="68"/>
<rect x="532.3" y="213.6" transform="matrix(0.9517 -0.3069 0.3069 0.9517 -39.9195 176.8545)" class="st18" width="20.1" height="3.6"/>
<ellipse class="st7" cx="605.5" cy="258.2" rx="7.2" ry="7.2"/>
<path class="st7" d="M547.9,208.7l10.1,1.9l-6.7,7.8L547.9,208.7z"/>
<path class="st7" d="M516.3,205.3c2.3-5.9,9-8.7,14.9-6.4l0,0c5.9,2.3,8.7,9,6.4,14.9l-6.5,16.2l-21.3-8.5L516.3,205.3z"/>
<path class="st7" d="M523,221.9c-23.6-9.3-39.3,11.5-44.8,22.5c16.4,23.4,46.4,25.8,60,24.6C542.9,257.2,546.6,231.2,523,221.9z"/>
<linearGradient id="SVGID_7_" gradientUnits="userSpaceOnUse" x1="-19.2465" y1="59.2869" x2="73.2052" y2="176.1939" gradientTransform="matrix(1 0 0 -1 0 383.8898)">
	<stop  offset="0" style="stop-color:#ECECEC"/>
	<stop  offset="1" style="stop-color:#F5F5F5;stop-opacity:0"/>
</linearGradient>
<path class="st19" d="M46,309.9c-15.2,9.3-20,0.8-20.4-4.6c0-7.9,0-14.4-10.3-26c-24.9-27.5-17-71.3,17.3-74.1s24.4,19,12.3,33.1
	c-12.1,14-4.4,18.3,13.6,28.4l0.1,0.1c23.6,14.2,3.9,27-7.7,29.3C39.3,298.3,49.3,305.3,46,309.9z"/>
<path class="st20" d="M196.3,157.7c-5.4-1.1-16-8.2-15.1-24.4"/>
<path class="st20" d="M272.1,70.8c-2.9-4.3-9.8-10.8-23.8-11.4"/>
<linearGradient id="SVGID_8_" gradientUnits="userSpaceOnUse" x1="88.8257" y1="36.6715" x2="56.9501" y2="35.9725" gradientTransform="matrix(1 0 0 -1 0 383.8898)">
	<stop  offset="0" style="stop-color:#FFFFFF"/>
	<stop  offset="1" style="stop-color:#CCCCCC"/>
</linearGradient>
<path class="st21" d="M80.5,349c1.3-14.7-12.3-18.3-20.6-18.3c-1,0-1.9,0.7-2.1,1.6c-0.5,1.6,0.7,3.1,2.4,3.3
	c7.3,0.6,17.2,3.7,15.4,13.3c-1.8,9.4-9.9,11.2-15.7,10.8c-1.6-0.1-3.1,1.1-3.1,2.7c0,1.2,0.8,2.2,2,2.3
	C66.5,365.6,79.2,363.4,80.5,349z"/>
<linearGradient id="SVGID_9_" gradientUnits="userSpaceOnUse" x1="35.1514" y1="79.2838" x2="35.1514" y2="-16.0792" gradientTransform="matrix(1 0 0 -1 0 383.8898)">
	<stop  offset="0" style="stop-color:#FFFFFF"/>
	<stop  offset="1" style="stop-color:#CCCCCC"/>
</linearGradient>
<path class="st22" d="M59.2,325.6v53c0,1.7-1.4,3.1-3.1,3.1H14.2c-1.7,0-3.1-1.4-3.1-3.1v-53c0-1.7,1.4-3.1,3.1-3.1h41.8
	C57.8,322.5,59.2,323.9,59.2,325.6z"/>
<path class="st20" d="M333,282.3l9.6-19.7"/>
<path class="st7" d="M252.7,340.8c-3.2,10.8-1.3,22.9,0,27.7l8.9-1.3c-1.9-14.1-0.8-22.9,0-25.5L252.7,340.8z"/>
<linearGradient id="SVGID_10_" gradientUnits="userSpaceOnUse" x1="32.5067" y1="385.0512" x2="32.3951" y2="379.7766" gradientTransform="matrix(0.9945 0.1048 0.1048 -0.9945 185.0432 715.733)">
	<stop  offset="0" style="stop-color:#7F67CE"/>
	<stop  offset="1" style="stop-color:#30235B"/>
</linearGradient>
<path class="st23" d="M251.4,336.4l12.4,1.3c1.2,0.1,2.1,1.2,1.9,2.4l0,0c-0.1,1.2-1.2,2.1-2.4,1.9l-12.4-1.3
	c-1.2-0.1-2.1-1.2-1.9-2.4l0,0C249.1,337.1,250.2,336.3,251.4,336.4z"/>
<path class="st24" d="M326.6,1.2h68.9c1.4,0,2.5,1.1,2.5,2.5v52.2c0,1.4-1.1,2.5-2.5,2.5h-68.9c-1.4,0-2.5-1.1-2.5-2.5V3.7
	C324,2.3,325.2,1.2,326.6,1.2z"/>
<path class="st10" d="M371.8,27.8c1.5,0.9,1.5,3.1,0,4L352.5,43c-1.5,0.9-3.5-0.2-3.5-2V18.7c0-1.8,1.9-2.9,3.5-2L371.8,27.8z"/>
<rect x="338.9" y="8.6" class="st25" width="42.6" height="39.3"/>
<path class="st24" d="M20.4,1.1h92.5c2.1,0,3.8,1.7,3.8,3.8v70.1c0,2.1-1.7,3.8-3.8,3.8H20.4c-2.1,0-3.8-1.7-3.8-3.8V4.9
	C16.6,2.8,18.3,1.1,20.4,1.1z"/>
<linearGradient id="SVGID_11_" gradientUnits="userSpaceOnUse" x1="66.6796" y1="366.8092" x2="66.6796" y2="321.1891" gradientTransform="matrix(1 0 0 -1 0 383.8898)">
	<stop  offset="0" style="stop-color:#64D5B7"/>
	<stop  offset="1" style="stop-color:#00C2FF"/>
</linearGradient>
<path class="st26" d="M78.1,39.9c1.2,0,2.4,0.5,3.2,1.3c0.9,0.9,1.3,2,1.3,3.2v13.7c0,1.2-0.5,2.4-1.3,3.2c-0.9,0.9-2,1.3-3.2,1.3
	H55.3c-1.2,0-2.4-0.5-3.2-1.3c-0.9-0.9-1.3-2-1.3-3.2V44.5c0-1.2,0.5-2.4,1.3-3.2c0.9-0.9,2-1.3,3.2-1.3V28.5c0-3,1.2-5.9,3.3-8.1
	c2.1-2.1,5-3.3,8.1-3.3c3,0,5.9,1.2,8.1,3.3c2.1,2.1,3.3,5,3.3,8.1V39.9z M66.7,55.9c1.2,0,2.4-0.5,3.2-1.3c0.9-0.9,1.3-2,1.3-3.2
	s-0.5-2.4-1.3-3.2c-0.9-0.9-2-1.3-3.2-1.3c-1.2,0-2.4,0.5-3.2,1.3c-0.9,0.9-1.3,2-1.3,3.2s0.5,2.4,1.3,3.2
	C64.3,55.4,65.5,55.9,66.7,55.9z M73.5,39.9V28.5c0-1.8-0.7-3.6-2-4.8c-1.3-1.3-3-2-4.8-2c-1.8,0-3.6,0.7-4.8,2c-1.3,1.3-2,3-2,4.8
	v11.4H73.5z"/>
<rect x="36.6" y="8.2" class="st25" width="60.8" height="58.5"/>
<path class="st27" d="M74.5,135.1H135c2.1,0,3.8,1.7,3.8,3.8V184c0,2.1-1.7,3.8-3.8,3.8H74.5c-2.1,0-3.8-1.7-3.8-3.8v-45.1
	C70.7,136.8,72.4,135.1,74.5,135.1z"/>
<defs>
	<filter id="Adobe_OpacityMaskFilter_1_" filterUnits="userSpaceOnUse" x="80.7" y="132.1" width="44.4" height="54.7">
		<feColorMatrix  type="matrix" values="1 0 0 0 0  0 1 0 0 0  0 0 1 0 0  0 0 0 1 0"/>
	</filter>
</defs>
<mask maskUnits="userSpaceOnUse" x="80.7" y="132.1" width="44.4" height="54.7" id="mask1_1_">
	<rect x="88.6" y="145.3" class="st28" width="32.3" height="32.4"/>
</mask>
<g class="st29">
	<rect x="80.7" y="132.1" class="st30" width="44.4" height="54.7"/>
</g>
<rect x="85.8" y="139.2" class="st25" width="43" height="45.4"/>
<path class="st31" d="M442.1,67.2h103.6c2.1,0,3.8,1.7,3.8,3.8v73c0,2.1-1.7,3.8-3.8,3.8H442.1c-2.1,0-3.8-1.7-3.8-3.8V71
	C438.3,68.9,440,67.2,442.1,67.2z"/>
<path class="st30" d="M458.5,102.3h13.9c1.4,0,2.6,1.2,2.6,2.6v21.4c0,1.4-1.2,2.6-2.6,2.6h-13.9c-1.4,0-2.6-1.2-2.6-2.6v-21.4
	C455.9,103.5,457,102.3,458.5,102.3z"/>
<path class="st32" d="M487,86.1h13.9c1.4,0,2.6,1.2,2.6,2.6v37.7c0,1.4-1.2,2.6-2.6,2.6H487c-1.4,0-2.6-1.2-2.6-2.6V88.7
	C484.4,87.2,485.5,86.1,487,86.1z"/>
<path class="st33" d="M515.4,93h13.9c1.4,0,2.6,1.2,2.6,2.6v30.8c0,1.4-1.2,2.6-2.6,2.6h-13.9c-1.4,0-2.6-1.2-2.6-2.6V95.6
	C512.9,94.1,514,93,515.4,93z"/>
<rect x="444.1" y="79.7" class="st25" width="96.6" height="58.5"/>
</svg>
