<?xml version="1.0" encoding="utf-8"?>
<!-- Generator: Adobe Illustrator 24.0.2, SVG Export Plug-In . SVG Version: 6.00 Build 0)  -->
<svg version="1.1" id="Capa_1" xmlns="http://www.w3.org/2000/svg" xmlns:xlink="http://www.w3.org/1999/xlink" x="0px" y="0px"
	 viewBox="0 0 56 56" style="enable-background:new 0 0 56 56;" xml:space="preserve">
<style type="text/css">
	.st0{fill:#AAF9F7;}
	.st1{fill:#00BDFF;}
</style>
<path class="st0" d="M28,0L28,0c15.2,0,27.5,12.3,27.5,27.5l0,0C55.5,42.7,43.2,55,28,55l0,0C12.8,55,0.5,42.7,0.5,27.5l0,0
	C0.5,12.4,12.8,0,28,0z"/>
<path class="st1" d="M35,24.5c0-0.9-0.2-1.8-0.5-2.7c-0.4-0.8-0.9-1.6-1.5-2.3c-0.6-0.6-1.4-1.2-2.3-1.5c-0.8-0.4-1.8-0.5-2.7-0.5
	s-1.8,0.2-2.7,0.5c-0.8,0.4-1.6,0.9-2.3,1.5c-0.7,0.6-1.2,1.4-1.5,2.3c-0.4,0.8-0.5,1.8-0.5,2.7c0,1.4,0.4,2.7,1.1,3.8h0
	c2.4,3.7,5.9,9.2,5.9,9.2l5.9-9.2h0C34.6,27.2,35,25.9,35,24.5z M28,27.5c-0.8,0-1.6-0.3-2.1-0.9c-0.6-0.6-0.9-1.3-0.9-2.1
	c0-0.8,0.3-1.6,0.9-2.1c0.6-0.6,1.3-0.9,2.1-0.9s1.6,0.3,2.1,0.9c0.6,0.6,0.9,1.3,0.9,2.1c0,0.8-0.3,1.6-0.9,2.1
	C29.6,27.2,28.8,27.5,28,27.5z"/>
</svg>
