<?xml version="1.0" encoding="utf-8"?>
<!-- Generator: Adobe Illustrator 24.0.2, SVG Export Plug-In . SVG Version: 6.00 Build 0)  -->
<svg version="1.1" id="Capa_1" xmlns="http://www.w3.org/2000/svg" xmlns:xlink="http://www.w3.org/1999/xlink" x="0px" y="0px"
	 viewBox="0 0 55 56" style="enable-background:new 0 0 55 56;" xml:space="preserve">
<style type="text/css">
	.st0{fill:#AAF9F7;}
	.st1{fill-rule:evenodd;clip-rule:evenodd;fill:#00BDFF;}
</style>
<path class="st0" d="M27.5,0L27.5,0C42.7,0,55,12.4,55,27.5l0,0C55,42.7,42.7,55,27.5,55l0,0C12.3,55,0,42.7,0,27.5l0,0
	C0,12.4,12.3,0,27.5,0z"/>
<path class="st1" d="M27.5,26.3c1,0,1.9-0.4,2.5-1.1c0.7-0.7,1.1-1.6,1.1-2.5s-0.4-1.9-1.1-2.5c-0.7-0.7-1.6-1.1-2.5-1.1
	s-1.9,0.4-2.5,1.1c-0.7,0.7-1.1,1.6-1.1,2.5s0.4,1.9,1.1,2.5C25.6,26,26.5,26.3,27.5,26.3z M22.4,37.1c-1.8,0-3.4-1.5-2.7-3.2
	c0.4-1,1-1.9,1.8-2.7c0.8-0.8,1.7-1.4,2.7-1.8c1-0.4,2.1-0.6,3.2-0.6s2.2,0.2,3.2,0.6c1,0.4,1.9,1,2.7,1.8c0.8,0.8,1.4,1.7,1.8,2.7
	c0.7,1.7-0.8,3.2-2.7,3.2H22.4z"/>
</svg>
