<?xml version="1.0" encoding="utf-8"?>
<!-- Generator: Adobe Illustrator 24.0.2, SVG Export Plug-In . SVG Version: 6.00 Build 0)  -->
<svg version="1.1" id="Capa_1" xmlns="http://www.w3.org/2000/svg" xmlns:xlink="http://www.w3.org/1999/xlink" x="0px" y="0px"
	 viewBox="0 0 55 56" style="enable-background:new 0 0 55 56;" xml:space="preserve">
<style type="text/css">
	.st0{fill:#AAF9F7;}
	.st1{fill:#00BDFF;}
</style>
<path class="st0" d="M27.5,0L27.5,0C42.7,0,55,12.4,55,27.5l0,0C55,42.7,42.7,55,27.5,55l0,0C12.3,55,0,42.7,0,27.5l0,0
	C0,12.4,12.3,0,27.5,0z"/>
<path class="st1" d="M35.5,18.5h-16c-0.5,0-1,0.2-1.4,0.6c-0.4,0.4-0.6,0.9-0.6,1.4v4c0,0.5,0.2,1,0.6,1.4c0.4,0.4,0.9,0.6,1.4,0.6
	h16c0.5,0,1-0.2,1.4-0.6c0.4-0.4,0.6-0.9,0.6-1.4v-4c0-0.5-0.2-1-0.6-1.4C36.5,18.8,36,18.5,35.5,18.5z M30.5,22.5c0,0.6-0.4,1-1,1
	s-1-0.4-1-1c0-0.6,0.4-1,1-1S30.5,22,30.5,22.5z M34.5,22.5c0,0.6-0.4,1-1,1s-1-0.4-1-1c0-0.6,0.4-1,1-1S34.5,22,34.5,22.5z
	 M35.5,28.5h-16c-0.5,0-1,0.2-1.4,0.6c-0.4,0.4-0.6,0.9-0.6,1.4v4c0,0.5,0.2,1,0.6,1.4c0.4,0.4,0.9,0.6,1.4,0.6h16
	c0.5,0,1-0.2,1.4-0.6c0.4-0.4,0.6-0.9,0.6-1.4v-4c0-0.5-0.2-1-0.6-1.4C36.5,28.8,36,28.5,35.5,28.5z M30.5,32.5c0,0.6-0.4,1-1,1
	s-1-0.4-1-1c0-0.6,0.4-1,1-1S30.5,32,30.5,32.5z M34.5,32.5c0,0.6-0.4,1-1,1s-1-0.4-1-1c0-0.6,0.4-1,1-1S34.5,32,34.5,32.5z"/>
</svg>
