<?xml version="1.0" encoding="utf-8"?>
<!-- Generator: Adobe Illustrator 24.0.2, SVG Export Plug-In . SVG Version: 6.00 Build 0)  -->
<svg version="1.1" id="Capa_1" xmlns="http://www.w3.org/2000/svg" xmlns:xlink="http://www.w3.org/1999/xlink" x="0px" y="0px"
	 viewBox="0 0 149 37" style="enable-background:new 0 0 149 37;" xml:space="preserve">
<style type="text/css">
	.st0{fill:#0B132A;}
	.st1{fill:#00BDFF;}
</style>
<path class="st0" d="M47,25.1c-0.1,0-0.2,0-0.3-0.1s-0.1-0.2-0.1-0.3v-13c0-0.1,0-0.3,0.1-0.3c0.1-0.1,0.2-0.1,0.3-0.1h1.9
	c0.1,0,0.3,0,0.3,0.1c0.1,0.1,0.1,0.2,0.1,0.3v11.1h6.3c0.1,0,0.3,0,0.4,0.1s0.1,0.2,0.1,0.3v1.4c0,0.1,0,0.2-0.1,0.3
	s-0.2,0.1-0.4,0.1H47z M61,25.3c-0.7,0-1.3-0.1-1.9-0.4c-0.6-0.3-1-0.7-1.3-1.1c-0.3-0.5-0.5-1-0.5-1.5c0-0.9,0.4-1.6,1.1-2.2
	s1.7-0.9,3-1.1l2.7-0.4v-0.4c0-0.6-0.1-1-0.4-1.3s-0.8-0.4-1.4-0.4c-0.4,0-0.8,0.1-1.1,0.2c-0.3,0.2-0.5,0.3-0.7,0.5
	c-0.2,0.2-0.3,0.3-0.3,0.3c-0.1,0.2-0.2,0.2-0.3,0.2h-1.6c-0.1,0-0.2,0-0.3-0.1c-0.1-0.1-0.1-0.2-0.1-0.3c0-0.3,0.2-0.7,0.5-1.1
	c0.3-0.4,0.8-0.8,1.5-1.1c0.7-0.3,1.5-0.5,2.4-0.5c1.6,0,2.7,0.4,3.4,1.1c0.7,0.7,1.1,1.6,1.1,2.8v6.3c0,0.1,0,0.2-0.1,0.3
	c-0.1,0.1-0.2,0.1-0.3,0.1h-1.7c-0.1,0-0.2,0-0.3-0.1s-0.1-0.2-0.1-0.3v-0.8c-0.3,0.4-0.7,0.8-1.2,1.1C62.4,25.2,61.8,25.3,61,25.3z
	 M61.6,23.4c0.7,0,1.3-0.2,1.8-0.7c0.5-0.5,0.7-1.2,0.7-2.1v-0.4l-2,0.3c-1.5,0.2-2.3,0.8-2.3,1.5c0,0.4,0.2,0.8,0.5,1
	C60.7,23.3,61.1,23.4,61.6,23.4z M73.3,25.3c-1,0-1.9-0.2-2.5-0.5c-0.7-0.3-1.2-0.7-1.5-1.1c-0.3-0.4-0.5-0.8-0.5-1.1
	c0-0.1,0-0.2,0.1-0.3c0.1-0.1,0.2-0.1,0.3-0.1h1.6c0.1,0,0.2,0.1,0.3,0.2c0.1,0.1,0.2,0.2,0.4,0.4c0.2,0.2,0.5,0.4,0.8,0.5
	c0.3,0.1,0.6,0.2,1,0.2c0.5,0,1-0.1,1.3-0.3c0.3-0.2,0.5-0.5,0.5-0.9c0-0.3-0.1-0.5-0.2-0.6c-0.1-0.2-0.4-0.3-0.8-0.5
	c-0.4-0.1-1-0.3-1.8-0.5c-1.1-0.2-2-0.6-2.5-1.1c-0.5-0.5-0.8-1.1-0.8-2c0-0.5,0.2-1,0.5-1.5c0.3-0.5,0.8-0.9,1.4-1.2
	c0.6-0.3,1.4-0.5,2.3-0.5c0.9,0,1.7,0.1,2.3,0.4c0.7,0.3,1.1,0.6,1.5,1c0.3,0.4,0.5,0.8,0.5,1.1c0,0.1,0,0.2-0.1,0.3
	c-0.1,0.1-0.2,0.1-0.3,0.1h-1.5c-0.1,0-0.3-0.1-0.3-0.2c-0.1-0.1-0.2-0.2-0.5-0.4c-0.2-0.2-0.4-0.3-0.7-0.4
	c-0.3-0.1-0.6-0.2-0.9-0.2c-0.5,0-0.9,0.1-1.1,0.3c-0.3,0.2-0.4,0.5-0.4,0.8c0,0.2,0.1,0.4,0.2,0.6c0.1,0.2,0.4,0.3,0.8,0.5
	c0.4,0.1,1,0.3,1.7,0.4c2.4,0.5,3.6,1.5,3.6,3.1c0,0.9-0.4,1.7-1.2,2.3C76,25,74.8,25.3,73.3,25.3z M80.6,25.1c-0.1,0-0.2,0-0.3-0.1
	c-0.1-0.1-0.1-0.2-0.1-0.3V11.4c0-0.1,0-0.3,0.1-0.3c0.1-0.1,0.2-0.1,0.3-0.1h1.7c0.1,0,0.3,0,0.3,0.1c0.1,0.1,0.1,0.2,0.1,0.3v13.2
	c0,0.1,0,0.2-0.1,0.3c-0.1,0.1-0.2,0.1-0.3,0.1H80.6z M89.9,25.3c-1.5,0-2.7-0.4-3.6-1.3c-0.9-0.9-1.3-2.1-1.4-3.6l0-0.5
	c0-1.7,0.4-3,1.3-3.9c0.9-1,2.1-1.4,3.6-1.4c1.6,0,2.8,0.5,3.7,1.4c0.9,1,1.3,2.2,1.3,3.8v0.4c0,0.1,0,0.2-0.1,0.3
	c-0.1,0.1-0.2,0.1-0.4,0.1h-6.6v0.2c0,0.7,0.2,1.4,0.6,1.9c0.4,0.5,0.9,0.7,1.6,0.7c0.8,0,1.4-0.3,1.9-0.9c0.1-0.1,0.2-0.2,0.3-0.3
	c0.1,0,0.2-0.1,0.3-0.1h1.8c0.1,0,0.2,0,0.3,0.1c0.1,0.1,0.1,0.2,0.1,0.3c0,0.3-0.2,0.7-0.6,1.1c-0.4,0.4-0.9,0.8-1.6,1.1
	C91.6,25.2,90.8,25.3,89.9,25.3z M92,19L92,19c0-0.8-0.2-1.5-0.6-1.9c-0.4-0.5-0.9-0.7-1.6-0.7s-1.2,0.2-1.6,0.7
	c-0.4,0.5-0.6,1.1-0.6,1.9v0H92z M100.9,25.3c-1,0-1.9-0.2-2.5-0.5c-0.7-0.3-1.2-0.7-1.5-1.1c-0.3-0.4-0.5-0.8-0.5-1.1
	c0-0.1,0-0.2,0.1-0.3c0.1-0.1,0.2-0.1,0.3-0.1h1.6c0.1,0,0.2,0.1,0.3,0.2c0.1,0.1,0.2,0.2,0.4,0.4c0.2,0.2,0.5,0.4,0.8,0.5
	c0.3,0.1,0.6,0.2,1,0.2c0.5,0,1-0.1,1.3-0.3c0.3-0.2,0.5-0.5,0.5-0.9c0-0.3-0.1-0.5-0.2-0.6c-0.1-0.2-0.4-0.3-0.8-0.5
	c-0.4-0.1-1-0.3-1.8-0.5c-1.1-0.2-2-0.6-2.5-1.1c-0.5-0.5-0.8-1.1-0.8-2c0-0.5,0.2-1,0.5-1.5c0.3-0.5,0.8-0.9,1.4-1.2
	c0.6-0.3,1.4-0.5,2.3-0.5c0.9,0,1.7,0.1,2.3,0.4c0.7,0.3,1.1,0.6,1.5,1c0.3,0.4,0.5,0.8,0.5,1.1c0,0.1,0,0.2-0.1,0.3
	c-0.1,0.1-0.2,0.1-0.3,0.1h-1.5c-0.1,0-0.3-0.1-0.3-0.2c-0.1-0.1-0.2-0.2-0.5-0.4c-0.2-0.2-0.4-0.3-0.7-0.4
	c-0.3-0.1-0.6-0.2-0.9-0.2c-0.5,0-0.9,0.1-1.1,0.3c-0.3,0.2-0.4,0.5-0.4,0.8c0,0.2,0.1,0.4,0.2,0.6c0.1,0.2,0.4,0.3,0.8,0.5
	c0.4,0.1,1,0.3,1.7,0.4c2.4,0.5,3.6,1.5,3.6,3.1c0,0.9-0.4,1.7-1.2,2.3C103.5,25,102.4,25.3,100.9,25.3z M111.6,25.1
	c-0.2,0-0.4-0.1-0.6-0.2c-0.1-0.1-0.2-0.3-0.3-0.4l-4-12.8l0-0.2c0-0.1,0-0.2,0.1-0.3c0.1-0.1,0.2-0.1,0.3-0.1h2.6
	c0.2,0,0.4,0.1,0.5,0.2c0.1,0.1,0.2,0.2,0.3,0.4l2.7,9l2.7-9c0-0.1,0.1-0.3,0.2-0.4c0.1-0.1,0.3-0.2,0.5-0.2h2.6
	c0.1,0,0.2,0,0.3,0.1c0.1,0.1,0.1,0.2,0.1,0.3c0,0.1,0,0.1,0,0.2l-4.1,12.8c0,0.2-0.1,0.3-0.3,0.4c-0.1,0.1-0.3,0.2-0.5,0.2H111.6z
	 M122.1,25.1c-0.1,0-0.3,0-0.4-0.1c-0.1-0.1-0.1-0.2-0.1-0.4v-13c0-0.1,0-0.3,0.1-0.4c0.1-0.1,0.2-0.2,0.4-0.2h5.7
	c1.7,0,3.1,0.4,4.1,1.2s1.5,1.9,1.5,3.5s-0.5,2.7-1.5,3.4c-1,0.7-2.3,1.1-4.1,1.1h-2.3v4.3c0,0.1,0,0.3-0.1,0.4
	c-0.1,0.1-0.2,0.1-0.4,0.1H122.1z M127.6,17.4c0.5,0,1-0.1,1.3-0.4c0.3-0.3,0.5-0.7,0.5-1.3c0-0.5-0.1-0.9-0.4-1.3
	c-0.3-0.3-0.7-0.5-1.3-0.5h-2.2v3.4H127.6z M135.6,25.1c-0.1,0-0.3,0-0.4-0.1c-0.1-0.1-0.1-0.2-0.1-0.4v-13c0-0.1,0-0.3,0.1-0.4
	c0.1-0.1,0.2-0.2,0.4-0.2h2.3c0.3,0,0.5,0.1,0.7,0.4l4.7,7.5v-7.3c0-0.1,0-0.3,0.1-0.4c0.1-0.1,0.2-0.2,0.4-0.2h2.5
	c0.1,0,0.3,0.1,0.4,0.2c0.1,0.1,0.1,0.2,0.1,0.4v13c0,0.1,0,0.3-0.1,0.4c-0.1,0.1-0.2,0.1-0.4,0.1h-2.3c-0.3,0-0.5-0.1-0.7-0.4
	l-4.7-7.2v7c0,0.1-0.1,0.3-0.2,0.4c-0.1,0.1-0.2,0.1-0.4,0.1H135.6z"/>
<path class="st1" d="M31.1,13.6L31.1,13.6C31.1,13.6,31.1,13.6,31.1,13.6L17.5,0L3.9,13.6c0,0,0,0,0,0l0,0c-2.1,2.1-3.4,4.8-3.8,7.8
	c-0.4,2.9,0.3,5.9,1.8,8.4c1.5,2.5,3.9,4.5,6.6,5.5c2.8,1.1,5.8,1.2,8.6,0.3c0.2-0.1,0.5-0.1,0.7,0c2.8,0.9,5.9,0.8,8.6-0.3
	s5.1-3,6.6-5.5c1.5-2.5,2.2-5.5,1.8-8.4C34.6,18.5,33.2,15.7,31.1,13.6z M8.7,22.6c-0.1,0.1-0.1,0.1-0.2,0.2c0,0.1-0.1,0.2-0.1,0.3
	c0,2.4,0.7,4.8,2,6.8c0,0,0,0.1,0,0.2c0,0.1,0,0.1-0.1,0.1c0,0-0.1,0.1-0.1,0.1c-0.1,0-0.1,0-0.2,0c-0.9-0.4-1.8-1-2.5-1.7
	c-1.5-1.5-2.3-3.5-2.3-5.6c0-2.1,0.8-4.1,2.3-5.6l9.9-9.9l9.9,9.9c1.5,1.5,2.3,3.5,2.3,5.6c0,2.1-0.8,4.1-2.3,5.6
	c-0.7,0.7-1.6,1.3-2.5,1.7c-0.1,0-0.1,0-0.2,0c-0.1,0-0.1,0-0.1-0.1c0,0-0.1-0.1-0.1-0.1c0-0.1,0-0.1,0-0.2c1.3-2,1.9-4.4,2-6.8
	c0-0.1,0-0.2-0.1-0.3c0-0.1-0.1-0.2-0.2-0.2l-4.7-5c0,0-0.1-0.1-0.2-0.1c-0.1,0-0.1,0-0.2,0.1c0,0-0.1,0.1-0.1,0.2
	c0,0.1,0,0.1,0,0.2c1.8,3.3,0.3,8-2.3,10.6l0,0c-0.4,0.4-0.8,0.6-1.3,0.6c-0.5,0-1-0.2-1.3-0.6l0,0C13.5,26,12,21.3,13.8,18
	c0-0.1,0-0.1,0-0.2c0-0.1,0-0.1-0.1-0.2c0,0-0.1-0.1-0.2-0.1c-0.1,0-0.1,0-0.2,0.1L8.7,22.6z"/>
</svg>
